<svg width="25" height="24" viewBox="0 0 25 24" fill="none" xmlns="http://www.w3.org/2000/svg">
<path d="M20.4634 18H9.46338C8.91338 18 8.46338 17.55 8.46338 17C8.46338 16.45 8.91338 16 9.46338 16H20.4634C21.0134 16 21.4634 16.45 21.4634 17C21.4634 17.55 21.0134 18 20.4634 18ZM20.4634 13H12.4634C11.9134 13 11.4634 12.55 11.4634 12C11.4634 11.45 11.9134 11 12.4634 11H20.4634C21.0134 11 21.4634 11.45 21.4634 12C21.4634 12.55 21.0134 13 20.4634 13ZM21.4634 7C21.4634 7.55 21.0134 8 20.4634 8H9.46338C8.91338 8 8.46338 7.55 8.46338 7C8.46338 6.45 8.91338 6 9.46338 6H20.4634C21.0134 6 21.4634 6.45 21.4634 7ZM4.16338 14.88L7.04338 12L4.16338 9.12C3.77338 8.73 3.77338 8.1 4.16338 7.71C4.55338 7.32 5.18338 7.32 5.57338 7.71L9.16338 11.3C9.55338 11.69 9.55338 12.32 9.16338 12.71L5.57338 16.3C5.18338 16.69 4.55338 16.69 4.16338 16.3C3.78338 15.91 3.77338 15.27 4.16338 14.88Z" fill="#212121" fill-opacity="0.6"/>
</svg>
